<svg xmlns="http://www.w3.org/2000/svg" viewBox="0 0 1014.5 915"><defs><style>.cls-1,.cls-3{fill:#fff;}.cls-2{fill:none;}.cls-2,.cls-3{stroke:#57d6f2;stroke-miterlimit:10;stroke-width:21px;}</style></defs><g id="Capa_2" data-name="Capa 2"><g id="Capa_2-2" data-name="Capa 2"><polygon class="cls-1" points="53 19 53 190.54 419.94 22 53 19"/><polygon class="cls-1" points="53 415.3 53 817 241.04 817 53 415.3"/><polygon class="cls-1" points="1004 617.67 567 817 972 817 970 780 1004 779 1004 617.67"/><path class="cls-1" d="M0,915H1013V614L375,897c-8.77,2-42.4,8.79-77-10a108.79,108.79,0,0,1-43-43c-46.47-91.55-92.82-189.24-138-293Q60.73,421.78,15,300A120.95,120.95,0,0,1,69,173L444,0H0Z"/></g><g id="Capa_1-2" data-name="Capa 1"><polyline class="cls-2" points="567 817 972 817 972 767 972 632.96"/><polygon class="cls-1" points="217.66 770 94.19 490.56 94 767 217.66 770"/><polyline class="cls-2" points="423.04 19 94 19 53 19 53 190.54"/><polyline class="cls-3" points="53 395.7 53 817 241.04 817"/><polyline class="cls-2" points="53 19 54 177.86 438.13 12 1004 12 1004 626.67 1004 779 961.62 779 651.19 779"/><polyline class="cls-3" points="94 487.56 94 767 218.72 767"/><path class="cls-2" d="M488.7,12.5,419.94,22,94.19,168.86l-9.34,4.21A119.48,119.48,0,0,0,53.6,193.54,121.71,121.71,0,0,0,24.39,332.61L53.6,398.7l40.59,91.86L217.66,770l22.1,50,3.66,8.29c26.92,60.92,97.64,88.26,158,61.07L555.21,820l110.9-50,297.3-134L1004,617.67"/></g></g></svg>