<svg xmlns="http://www.w3.org/2000/svg" viewBox="0 0 580.56 554"><defs><style>.cls-1{fill:#fff;stroke:#fff;stroke-miterlimit:10;stroke-width:4px;}</style></defs><g id="Capa_2" data-name="Capa 2"><g id="Capa_4" data-name="Capa 4"><path class="cls-1" d="M220,474.5c-23.24-5.31-99-25.67-157-98-51.38-64-59.3-131.93-61-157a12.64,12.64,0,0,1,10.5-7.5,13,13,0,0,1,10,4,290.26,290.26,0,0,0,144,175c8.55,2.53,17.36-1.07,21-8,4.27-8.11-.75-16.6-1-17-3-2.3-7.47-5.78-13-10-13-9.87-17.24-12.85-25-19-21.67-17.18-23.08-21.57-23-25,.12-5.07,3.57-10.47,8-12,5.28-1.82,11.06,2.19,22,10,9,6.42,9.57,8.47,15,11,9.34,4.35,18.18,3.19,21,3,20.3-1.35,57.08,25.95,78,57,30.69,45.56,23.94,94.31,22,106q-.5,32.5-1,65h-50A122.14,122.14,0,0,0,220,474.5Z"/><path class="cls-1" d="M363.89,474.46c22.88-5.31,97.44-25.68,154.58-98,50.59-64.07,58.39-132,60.06-157.08a12.48,12.48,0,0,0-10.34-7.5,12.68,12.68,0,0,0-9.84,4,293.46,293.46,0,0,1-46.28,93,288.84,288.84,0,0,1-95.5,82c-8.42,2.53-17.09-1.07-20.68-8-4.2-8.11.74-16.6,1-17,2.91-2.29,7.36-5.78,12.8-10,12.76-9.88,17-12.85,24.62-19,21.33-17.19,22.72-21.58,22.64-25-.11-5.08-3.51-10.48-7.87-12-5.2-1.82-10.89,2.19-21.66,10-8.86,6.42-9.43,8.47-14.77,11-9.2,4.35-17.9,3.19-20.68,3-20-1.35-56.2,26-76.8,57C284.94,426.5,291.58,475.28,293.49,487l1,65h49.23a124.7,124.7,0,0,1,4.92-45A123.4,123.4,0,0,1,363.89,474.46Z"/><path class="cls-1" d="M238.53,85V2h110V86c-19.41-3.06-30.43,1.23-37,6-9.8,7.13-11.49,16.67-19,17-7.76.34-10.67-9.61-22-17C259.81,85,247.68,84.31,238.53,85Z"/><path class="cls-1" d="M203.53,109c-4.5,8-12.37,24.59-11,46,2.81,44.05,42.1,67.73,46,70h-108V109Z"/><path class="cls-1" d="M383.53,109h72V225h-107c5.2-3.81,45.4-34.29,44-81A84.39,84.39,0,0,0,383.53,109Z"/><path class="cls-1" d="M291.53,128c-12.92-23-42-31.15-64-19-20.46,11.32-29.55,37.39-20,60l84,87,81-82c13.33-27.56-.07-59.09-24-68C328.94,98.7,304.31,107.31,291.53,128Z"/><path class="cls-1" d="M238.53,225V327h110V225l-57,50Z"/></g></g></svg>